<svg 
 xmlns="http://www.w3.org/2000/svg"
 xmlns:xlink="http://www.w3.org/1999/xlink"
 width="1647px" height="927px">
<defs>
<filter filterUnits="userSpaceOnUse" id="Filter_0" x="0px" y="0px" width="1647px" height="927px"  >
    <feOffset in="SourceAlpha" dx="0" dy="0" />
    <feGaussianBlur result="blurOut" stdDeviation="11.18" />
    <feFlood flood-color="rgb(0,0,0)" result="floodOut" />
    <feComposite operator="atop" in="floodOut" in2="blurOut" />
    <feComponentTransfer><feFuncA type="linear" slope="0.25"/></feComponentTransfer>
    <feMerge>
    <feMergeNode/>
    <feMergeNode in="SourceGraphic"/>
  </feMerge>
</filter>

</defs>
<g filter="url(#Filter_0)">
<path fill-rule="evenodd"  fill-opacity="0.1" fill="rgb(249, 249, 249)"
 d="M1423.500,375.988 L1325.012,277.500 L1423.500,179.012 L1521.988,277.500 L1423.500,375.988 ZM1217.000,699.000 C1132.500,699.000 1064.000,630.499 1064.000,546.000 C1064.000,461.500 1132.500,393.000 1217.000,393.000 C1301.500,393.000 1370.000,461.500 1370.000,546.000 C1370.000,630.499 1301.500,699.000 1217.000,699.000 ZM1216.670,445.656 C1161.441,445.656 1116.670,490.427 1116.670,545.656 C1116.670,600.885 1161.441,645.656 1216.670,645.656 C1271.898,645.656 1316.670,600.885 1316.670,545.656 C1316.670,490.427 1271.898,445.656 1216.670,445.656 ZM1020.000,224.000 C992.386,224.000 970.000,201.614 970.000,174.000 C970.000,146.385 992.386,124.000 1020.000,124.000 C1047.614,124.000 1070.000,146.385 1070.000,174.000 C1070.000,201.614 1047.614,224.000 1020.000,224.000 ZM281.000,430.000 C196.500,430.000 128.000,361.499 128.000,277.000 C128.000,192.500 196.500,124.000 281.000,124.000 C365.500,124.000 434.000,192.500 434.000,277.000 C434.000,361.499 365.500,430.000 281.000,430.000 ZM280.670,176.656 C225.441,176.656 180.670,221.427 180.670,276.656 C180.670,331.885 225.441,376.656 280.670,376.656 C335.898,376.656 380.670,331.885 380.670,276.656 C380.670,221.427 335.898,176.656 280.670,176.656 ZM124.006,797.986 L124.006,601.000 L222.000,699.493 L124.006,797.986 ZM1324.500,755.000 C1337.479,755.000 1348.000,765.521 1348.000,778.500 C1348.000,791.479 1337.479,802.000 1324.500,802.000 C1311.521,802.000 1301.000,791.479 1301.000,778.500 C1301.000,765.521 1311.521,755.000 1324.500,755.000 Z"/>
</g>
</svg>