<svg xmlns="http://www.w3.org/2000/svg" xmlns:xlink="http://www.w3.org/1999/xlink"  viewBox="0 0 489 448" style="enable-background:new 0 0 489 448;" xml:space="preserve">
  <defs>
    <filter id="dropshadow" height="300%">
      <feGaussianBlur in="SourceAlpha" stdDeviation="20"/> 
      <feOffset dx="2" dy="2" result="offsetblur"/>
      <feComponentTransfer>
        <feFuncA type="linear" slope="0.02"/>
      </feComponentTransfer>
      <feMerge> 
        <feMergeNode/>
        <feMergeNode in="SourceGraphic"/> 
      </feMerge>
    </filter>
  </defs>
<path d="M94.3,100.3c-5-1.7-9.2-2.5-12.6-2.5c-2.7,0-4.8,0.5-6.3,1.5c-1.5,1-2.3,2.4-2.3,4.3c0,1.8,0.7,3.3,2,4.6
	c1.3,1.2,3,2.2,5,3c2,0.8,4.9,1.7,8.8,2.9c5.8,1.7,10.5,3.3,14.3,5c3.8,1.7,7,4.2,9.7,7.6c2.7,3.4,4,7.9,4,13.5
	c0,5.5-1.5,10.3-4.4,14.2c-2.9,3.9-6.9,6.9-12,8.8c-5.1,2-10.8,3-17,3c-6.9,0-13.7-1.2-20.6-3.6c-6.8-2.4-12.7-5.7-17.7-9.9l8.4-17
	c4.2,3.7,9.2,6.8,14.9,9.1c5.7,2.4,10.8,3.6,15.2,3.6c3.2,0,5.8-0.6,7.6-1.8c1.9-1.2,2.8-2.9,2.8-5.2c0-1.9-0.7-3.5-2.1-4.7
	c-1.4-1.3-3.1-2.3-5.2-3c-2.1-0.8-5-1.6-8.8-2.7c-5.7-1.6-10.4-3.2-14.1-4.8c-3.7-1.6-6.9-4.1-9.5-7.4c-2.6-3.3-4-7.6-4-13.1
	c0-5.1,1.4-9.6,4.1-13.5c2.7-3.9,6.6-6.9,11.6-9C71,81,76.8,80,83.5,80c6,0,11.9,0.9,17.8,2.6c5.9,1.7,11,4,15.4,6.8l-8.2,17.3
	C104.1,104.1,99.3,101.9,94.3,100.3z M188.5,164.8l-5.7-14.7h-35.9l-5.8,14.7h-22.3l35.7-83.1h22.3l34.9,83.1H188.5z M153.4,133.5
	h23l-11.4-29.6L153.4,133.5z M280.3,89.3c5.9,5.1,8.8,12.3,8.8,21.5c0,9.8-2.9,17.4-8.8,22.8c-5.9,5.4-14.1,8.1-24.7,8.1h-14.8v23
	h-21.7V81.7h36.5C266.3,81.7,274.5,84.2,280.3,89.3z M264.9,121.2c2.4-2.2,3.6-5.4,3.6-9.6c0-4-1.2-7.1-3.6-9.3
	c-2.4-2.2-5.8-3.3-10.3-3.3h-13.8v25.5h13.8C259,124.5,262.4,123.4,264.9,121.2z M44,181.3h71.3v17.9H90.3v65.2H68.6v-65.2H44V181.3
	z M124,181.3h65.6v17.3h-43.9v15.5h39.6v17.2l-39.6,0.1v15.7h45.1v17.3H124V181.3z M254,264.4l-12.1-23h-0.5h-15.7v23h-21.7v-83.1
	h37.4c11,0,19.5,2.5,25.6,7.6c6,5.1,9.1,12.3,9.1,21.5c0,6.2-1.3,11.6-3.8,16.2c-2.5,4.5-6.2,8.1-11,10.6l17.3,27.2H254z
	 M225.8,224.1h15.8c4.4,0,7.8-1.1,10.3-3.3c2.4-2.2,3.6-5.4,3.6-9.6c0-4-1.2-7.1-3.6-9.3c-2.4-2.2-5.8-3.3-10.3-3.3h-15.8V224.1z
	 M351.1,188.9c5.9,5.1,8.8,12.3,8.8,21.5c0,9.8-2.9,17.4-8.8,22.8c-5.9,5.4-14.1,8.1-24.7,8.1h-14.8v23h-21.7v-83.1h36.5
	C337.1,181.3,345.3,183.8,351.1,188.9z M335.7,220.8c2.4-2.2,3.6-5.4,3.6-9.6c0-4-1.2-7.1-3.6-9.3c-2.4-2.2-5.8-3.3-10.3-3.3h-13.8
	v25.5h13.8C329.8,224.1,333.2,223,335.7,220.8z M43.5,280.9h37.7V364H59.5v-65.3h-16V280.9z M160.1,291.1c6.4,7.3,9.5,17.7,9.5,31.3
	c0,13.6-3.2,24.1-9.5,31.4c-6.4,7.3-15.5,11-27.3,11c-11.9,0-21.1-3.6-27.4-10.9c-6.3-7.3-9.5-17.7-9.5-31.4c0-13.6,3.2-24,9.5-31.3
	c6.3-7.3,15.5-10.9,27.4-10.9C144.7,280.2,153.8,283.8,160.1,291.1z M121.6,302.4c-2.3,4.1-3.5,10.7-3.5,20c0,9.3,1.2,16,3.5,20.1
	c2.3,4.1,6.1,6.1,11.2,6.1c5.1,0,8.9-2,11.1-6.1c2.3-4.1,3.4-10.8,3.4-20.1c0-9.3-1.1-15.9-3.4-20c-2.3-4.1-6-6.1-11.1-6.1
	C127.7,296.3,123.9,298.4,121.6,302.4z" fill="#fff" filter="url(#dropshadow)"/>
</svg>